<svg xmlns="http://www.w3.org/2000/svg" viewBox="0 0 51 50.9" x="0px" y="0px" fill="#6b6b6b"><title>map</title><path d="M41,297.4l-0.9-.2-15.6-7.6L9.4,297a2,2,0,0,1-2.9-1.8V256.3a2,2,0,0,1,1.1-1.8l16.5-7.8a2.1,2.1,0,0,1,1.8,0l14.6,7.5L54.6,247a2,2,0,0,1,2.9,1.8v38.9a2.1,2.1,0,0,1-1.1,1.8l-14.5,7.7Zm-0.5-2.9h0Zm0.9,0h0Zm-16.9-8,0.9,0.2L41,294.3l13.5-7.2V250.5l-13.1,6.8a2.1,2.1,0,0,1-1.8,0L25,249.7,9.5,257v36.7l14.1-6.8ZM8.1,294.3h0Zm0.2-38.4,0.6,1.4Zm16.2-6.4h0Z" transform="translate(-6.5 -246.6)"></path><rect x="17.5" y="1.4" width="2" height="40"></rect><rect x="33.5" y="9.4" width="2" height="40"></rect></svg>